<svg width="26" height="32" viewBox="0 0 26 32" fill="none" xmlns="http://www.w3.org/2000/svg">
    <path d="M15.7476 2.4685C16.742 1.28338 18.1632 0.539082 19.6985 0.399346C21.2339 0.259611 22.7576 0.735881 23.9344 1.72338C25.1113 2.71089 25.8449 4.12873 25.9739 5.66501C26.1029 7.20128 25.6167 8.73015 24.6223 9.91526L11.124 26.0019C10.5274 26.7129 9.67464 27.1595 8.75343 27.2433C7.83223 27.3272 6.91802 27.0414 6.2119 26.4489C5.50578 25.8564 5.06561 25.0057 4.98821 24.0839C4.91081 23.1622 5.20253 22.2449 5.79919 21.5338L16.2978 9.022C16.4967 8.78498 16.781 8.63612 17.088 8.60817C17.3951 8.58022 17.6998 8.67548 17.9352 8.87298C18.1706 9.07048 18.3173 9.35405 18.3431 9.6613C18.3689 9.96856 18.2717 10.2743 18.0728 10.5114L7.57414 23.0231C7.37525 23.2602 7.27801 23.5659 7.30381 23.8732C7.32961 24.1805 7.47633 24.464 7.7117 24.6615C7.94708 24.859 8.25182 24.9543 8.55888 24.9263C8.86595 24.8984 9.15019 24.7495 9.34908 24.5125L22.8473 8.42591C23.1428 8.07382 23.3664 7.6674 23.5056 7.22984C23.6447 6.79229 23.6966 6.33217 23.6583 5.87576C23.62 5.41934 23.4922 4.97558 23.2822 4.5698C23.0723 4.16401 22.7843 3.80416 22.4346 3.51078C22.085 3.21741 21.6806 2.99625 21.2445 2.85994C20.8084 2.72364 20.3492 2.67485 19.8931 2.71636C19.437 2.75787 18.9928 2.88888 18.5861 3.10189C18.1793 3.31491 17.8179 3.60576 17.5225 3.95785L4.02425 20.0444C3.02982 21.2296 2.54362 22.7584 2.67262 24.2947C2.80161 25.831 3.53523 27.2488 4.71209 28.2363C5.88895 29.2238 7.41265 29.7001 8.94799 29.5604C10.4833 29.4206 11.9045 28.6763 12.899 27.4912L23.3976 14.9794C23.5965 14.7424 23.8807 14.5935 24.1878 14.5656C24.4949 14.5376 24.7996 14.6329 25.035 14.8304C25.2703 15.0279 25.4171 15.3115 25.4429 15.6187C25.4687 15.926 25.3714 16.2317 25.1725 16.4688L14.6739 28.9806C13.2817 30.6397 11.292 31.6817 9.14254 31.8774C6.99307 32.073 4.85989 31.4062 3.21229 30.0237C1.56468 28.6412 0.537614 26.6562 0.35702 24.5054C0.176425 22.3547 0.857102 20.2142 2.24931 18.5551L15.7476 2.4685Z" fill="white"/>
    </svg>
    