<svg width="22" height="21" viewBox="0 0 22 21" fill="none" xmlns="http://www.w3.org/2000/svg">
    <path d="M21.3347 9.44334L1.6519 0.111016C1.4537 0.0170517 1.23311 -0.0183381 1.01575 0.00895653C0.798386 0.0362512 0.593167 0.12511 0.423922 0.265215C0.254678 0.40532 0.128352 0.590922 0.0596138 0.80047C-0.00912443 1.01002 -0.0174547 1.23491 0.0355905 1.44904L1.43886 7.10559L10.4212 10.4991L1.43886 13.8925L0.0355905 19.5491C-0.0184528 19.7634 -0.0108177 19.9887 0.0576025 20.1988C0.126023 20.4089 0.252399 20.595 0.421949 20.7353C0.591499 20.8757 0.797211 20.9645 1.01502 20.9914C1.23283 21.0182 1.45374 20.9821 1.6519 20.8871L21.3347 11.5548C21.5336 11.4606 21.7018 11.3113 21.8196 11.1243C21.9374 10.9374 22 10.7205 22 10.4991C22 10.2776 21.9374 10.0607 21.8196 9.87379C21.7018 9.68684 21.5336 9.53754 21.3347 9.44334Z" fill="white"/>
    </svg>
    